G04 ================== begin FILE IDENTIFICATION RECORD ==================*
G04 Layout Name:  SCHIVATO.brd*
G04 Film Name:    BOTTOM*
G04 File Format:  Gerber RS274X*
G04 File Origin:  Cadence Allegro 17.2-S079*
G04 Origin Date:  Tue Jan 11 15:33:25 2022*
G04 *
G04 Layer:  ETCH/BOTTOM*
G04 Layer:  PIN/BOTTOM*
G04 Layer:  VIA CLASS/BOTTOM*
G04 *
G04 Offset:    (0.0000 0.0000)*
G04 Mirror:    No*
G04 Mode:      Positive*
G04 Rotation:  0*
G04 FullContactRelief:  No*
G04 UndefLineWidth:     0.0001*
G04 ================== end FILE IDENTIFICATION RECORD ====================*
%FSLAX25Y25*MOMM*%
%IR0*IPPOS*OFA0.00000B0.00000*MIA0B0*SFA1.00000B1.00000*%
%ADD13C,.6*%
%ADD15C,1.*%
%ADD16C,1.1*%
%ADD10C,1.3*%
%ADD12C,2.4*%
%ADD14C,1.6*%
%ADD17R,1.1X1.1*%
%ADD18C,1.45*%
%ADD11R,1.3X1.3*%
%ADD19R,1.45X1.45*%
%ADD20C,.153*%
%ADD22C,1.3004*%
%ADD23C,1.4004*%
%ADD25C,1.9004*%
%ADD21C,1.7504*%
%ADD24C,1.5544*%
%ADD27C,1.8544*%
%ADD26C,2.8068*%
G75*
%LPD*%
G75*
G36*
G01X29333800Y31229800D02*
X31935400D01*
Y30631500D01*
X34193300D01*
Y29382100D01*
X36930700D01*
Y26532000D01*
X29333800D01*
Y31229800D01*
G37*
%LPC*%
G75*
G36*
G01X29571980Y30005000D02*
Y30135000D01*
G02X29587000Y30150020I15020J0D01*
G01X29717000D01*
G02X29732020Y30135000I0J-15020D01*
G01Y30005000D01*
G02X29717000Y29989980I-15020J0D01*
G01X29587000D01*
G02X29571980Y30005000I0J15020D01*
G37*
G36*
G01X35811530Y29079700D02*
Y29189700D01*
G02X35826550Y29204720I15020J0D01*
G01X35936550D01*
G02X35951570Y29189700I0J-15020D01*
G01Y29079700D01*
G02X35936550Y29064680I-15020J0D01*
G01X35826550D01*
G02X35811530Y29079700I0J15020D01*
G37*
G36*
G01X36498590Y28209280D02*
Y28354280D01*
G02X36511310Y28367000I12720J0D01*
G01X36656310D01*
G02X36669030Y28354280I0J-12720D01*
G01Y28209280D01*
G02X36656310Y28196560I-12720J0D01*
G01X36511310D01*
G02X36498590Y28209280I0J12720D01*
G37*
G36*
G01X34219430Y27961960D02*
X34149870Y28031520D01*
X34147200Y28030980D01*
G02X34138330Y28030100I-8858J44141D01*
G02X34183350Y28075120I0J45020D01*
G02X34182470Y28066250I-45021J-12D01*
G01X34181930Y28063580D01*
X34251490Y27994020D01*
X34254160Y27994560D01*
G02X34263030Y27995440I8858J-44141D01*
G02X34218010Y27950420I0J-45020D01*
G02X34218890Y27959290I45021J12D01*
G01X34219430Y27961960D01*
G37*
G36*
G01X35677230Y28155170D02*
X35739400Y28217340D01*
X35738860Y28220010D01*
G02X35737980Y28228880I44141J8858D01*
G02X35783000Y28183860I45020J0D01*
G02X35774130Y28184740I-12J45021D01*
G01X35771460Y28185280D01*
X35709290Y28123110D01*
X35709830Y28120440D01*
G02X35710710Y28111570I-44141J-8858D01*
G02X35665690Y28156590I-45020J0D01*
G02X35674560Y28155710I12J-45021D01*
G01X35677230Y28155170D01*
G37*
G36*
G01X35417980Y28405270D02*
G02X35379080Y28382920I-38900J22678D01*
G02Y28472960I0J45020D01*
G02X35417980Y28450610I0J-45028D01*
G01X35616110D01*
G02X35655580Y28473980I39470J-21646D01*
G02Y28383940I0J-45020D01*
G02X35617300Y28405270I0J45015D01*
G01X35417980D01*
G37*
G36*
G01X33688100Y28494540D02*
X33858290Y28664730D01*
X33857750Y28667400D01*
G02X33856870Y28676270I44141J8858D01*
G02X33901890Y28631250I45020J0D01*
G02X33893020Y28632130I-12J45021D01*
G01X33890350Y28632670D01*
X33720160Y28462480D01*
X33720700Y28459810D01*
G02X33721580Y28450940I-44141J-8858D01*
G02X33676560Y28495960I-45020J0D01*
G02X33685430Y28495080I12J-45021D01*
G01X33688100Y28494540D01*
G37*
G36*
G01X35489740Y28736870D02*
X35349210Y28877400D01*
X35346540Y28876860D01*
G02X35337670Y28875980I-8858J44141D01*
G02X35382690Y28921000I0J45020D01*
G02X35381810Y28912130I-45021J-12D01*
G01X35381270Y28909460D01*
X35521800Y28768930D01*
X35524470Y28769470D01*
G02X35533340Y28770350I8858J-44141D01*
G02X35488320Y28725330I0J-45020D01*
G02X35489200Y28734200I45021J12D01*
G01X35489740Y28736870D01*
G37*
G36*
G01X35228570Y28716200D02*
X35066470Y28878300D01*
X35063800Y28877760D01*
G02X35054930Y28876880I-8858J44141D01*
G02X35099950Y28921900I0J45020D01*
G02X35099070Y28913030I-45021J-12D01*
G01X35098530Y28910360D01*
X35260630Y28748260D01*
X35263300Y28748800D01*
G02X35272170Y28749680I8858J-44141D01*
G02X35227150Y28704660I0J-45020D01*
G02X35228030Y28713530I45021J12D01*
G01X35228570Y28716200D01*
G37*
G36*
G01X33483570Y28914300D02*
G02X33444670Y28891950I-38900J22678D01*
G02Y28981990I0J45020D01*
G02X33483570Y28959640I0J-45028D01*
G01X33600850D01*
G02X33640750Y28983800I39900J-20867D01*
G02Y28893760I0J-45020D01*
G02X33602970Y28914300I0J45015D01*
G01X33483570D01*
G37*
G36*
G01X31264830Y29600400D02*
Y29655400D01*
G02X31242980Y29694000I23170J38600D01*
G02X31333020I45020J0D01*
G02X31310170Y29654820I-45015J0D01*
G01Y29600400D01*
G02X31332520Y29561500I-22678J-38900D01*
G02X31242480I-45020J0D01*
G02X31264830Y29600400I45028J0D01*
G37*
G36*
G01X31917110Y29563250D02*
X31678420Y29801940D01*
X31675750Y29801400D01*
G02X31666880Y29800520I-8858J44141D01*
G02X31711900Y29845540I0J45020D01*
G02X31711020Y29836670I-45021J-12D01*
G01X31710480Y29834000D01*
X31949170Y29595310D01*
X31951840Y29595850D01*
G02X31960710Y29596730I8858J-44141D01*
G02X31915690Y29551710I0J-45020D01*
G02X31916570Y29560580I45021J12D01*
G01X31917110Y29563250D01*
G37*
G36*
G01X32386030Y29230080D02*
X31804250Y29811860D01*
X31801580Y29811320D01*
G02X31792710Y29810440I-8858J44141D01*
G02X31837730Y29855460I0J45020D01*
G02X31836850Y29846590I-45021J-12D01*
G01X31836310Y29843920D01*
X32412880Y29267350D01*
X32413790Y29266960D01*
G02X32420920Y29262140I-8901J-20850D01*
G01X32428960Y29254100D01*
X32431630Y29254640D01*
G02X32440500Y29255520I8858J-44141D01*
G02X32395480Y29210500I0J-45020D01*
G02X32396360Y29219370I45021J12D01*
G01X32396900Y29222040D01*
X32394070Y29224870D01*
X32393160Y29225260D01*
G02X32386030Y29230080I8901J20850D01*
G37*
G36*
G01X31723550Y31130330D02*
Y31139360D01*
G02X31738570Y31154380I15020J0D01*
G01X31848570D01*
G02X31863590Y31139360I0J-15020D01*
G01Y31029360D01*
G02X31848570Y31014340I-15020J0D01*
G01X31842770D01*
Y31007220D01*
X31844180Y31005750D01*
G02X31863590Y30957360I-50614J-48390D01*
G02X31793570Y30887340I-70020J0D01*
G02X31738120Y30914610I0J70010D01*
G03X31722020I-8050J-6204D01*
G02X31611120I-55450J42740D01*
G03X31595020I-8050J-6204D01*
G02X31484120I-55450J42740D01*
G03X31468020I-8050J-6204D01*
G02X31357120I-55450J42740D01*
G03X31341020I-8050J-6204D01*
G02X31285570Y30887340I-55450J42740D01*
G02X31215550Y30957360I0J70020D01*
G02X31244490Y31014060I70014J0D01*
G03X31244670Y31030390I-5958J8232D01*
G02X31217850Y31084360I40892J53970D01*
G02X31285570Y31152080I67720J0D01*
G02X31339540Y31125260I0J-67712D01*
G03X31355870Y31125440I8098J6138D01*
G02X31469270I56700J-41074D01*
G03X31485600Y31125260I8232J5958D01*
G02X31539570Y31152080I53970J-40892D01*
G02X31594790Y31123570I0J-67732D01*
G03X31611350I8280J5879D01*
G02X31666570Y31152080I55220J-39222D01*
G02X31714850Y31131850I0J-67726D01*
G01X31716340Y31130330D01*
X31723550D01*
G37*
G36*
G01X30488340Y27857050D02*
G02X30398000Y27791480I-90340J29449D01*
G02Y27981520I0J95020D01*
G02X30488340Y27915950I0J-95019D01*
G03X30507660I9660J3150D01*
G02X30598000Y27981520I90340J-29449D01*
G02Y27791480I0J-95020D01*
G02X30507660Y27857050I0J95019D01*
G03X30488340I-9660J-3150D01*
G37*
G36*
G01X33405080Y29578850D02*
G02X33382730Y29617750I22678J38900D01*
G02X33472770I45020J0D01*
G02X33450420Y29578850I-45028J0D01*
G01Y29285750D01*
G02X33443780Y29269720I-22669J0D01*
G01X33416230Y29242170D01*
X33421470Y29236930D01*
X33423800Y29237110D01*
G02X33425500Y29237170I1649J-22612D01*
G01X33603370D01*
X33605330Y29239130D01*
Y29300000D01*
G02X33611970Y29316030I22669J0D01*
G01X33623900Y29327960D01*
X33623360Y29330630D01*
G02X33622480Y29339500I44141J8858D01*
G02X33667500Y29294480I45020J0D01*
G02X33658630Y29295360I-12J45021D01*
G01X33655960Y29295900D01*
X33650670Y29290610D01*
Y29229740D01*
G02X33644030Y29213710I-22669J0D01*
G01X33628790Y29198470D01*
G02X33612760Y29191830I-16030J16029D01*
G01X33434890D01*
X33324530Y29081470D01*
G02X33308500Y29074830I-16030J16029D01*
G01X33117580D01*
X33117100Y29074740D01*
G02X33112820Y29074330I-4292J22259D01*
G01X33101400D01*
G02X33023600I-38900J22678D01*
G01X32757500D01*
G02X32741470Y29080970I0J22669D01*
G01X32536290Y29286150D01*
X32533620Y29285610D01*
G02X32524750Y29284730I-8858J44141D01*
G02X32569770Y29329750I0J45020D01*
G02X32568890Y29320880I-45021J-12D01*
G01X32568350Y29318210D01*
X32766890Y29119670D01*
X33023600D01*
G02X33101400I38900J-22678D01*
G01X33108560D01*
X33109040Y29119760D01*
G02X33113320Y29120170I4292J-22259D01*
G01X33299110D01*
X33376270Y29197330D01*
X33371030Y29202570D01*
X33368700Y29202390D01*
G02X33367000Y29202330I-1649J22612D01*
G01X33071230D01*
G02X33031500Y29178480I-39730J21167D01*
G02Y29268520I0J45020D01*
G02X33069480Y29247670I0J-45017D01*
G01X33357610D01*
X33405080Y29295140D01*
Y29578850D01*
G37*
G54D22*
X30673500Y30984000D03*
X30273500D03*
X30473500D03*
G54D23*
X34334490Y28130350D03*
X34514490Y27950350D03*
Y28310350D03*
X34331390Y29038270D03*
X34511390Y28858270D03*
Y29218270D03*
X35881550Y28880700D03*
G54D25*
X30148000Y27886500D03*
G54D21*
X36583810Y28535780D03*
Y28027780D03*
G54D24*
X29652000Y29816000D03*
G54D27*
X30848000Y27886500D03*
G54D26*
X31155000Y27606500D03*
X29841000D03*
%LPD*%
G75*
G54D10*
X29652000Y29816000D03*
G54D20*
G01X29569200D02*
X29652000D01*
G01Y29733200D02*
Y29816000D01*
G01D02*
Y29898800D01*
G01Y29816000D02*
X29734800D01*
G01X30750200Y27886500D02*
X30848000D01*
G01Y27788700D02*
Y27886500D01*
G01D02*
Y27984300D01*
G01Y27886500D02*
X30945800D01*
G01X31212770Y31084360D02*
X31285570D01*
G01X31287500Y29561500D02*
Y29693500D01*
X31288000Y29694000D01*
G01X31539000Y31161500D02*
X31539570Y31160930D01*
G01D02*
Y31084360D01*
G01X31285570D02*
Y31157160D01*
G01X32440500Y29210500D02*
X32404890Y29246110D01*
X32402060D01*
X31792710Y29855460D01*
G01X31666880Y29845540D02*
X31960710Y29551710D01*
G01X31666500Y31157000D02*
X31666570Y31156930D01*
G01D02*
Y31084360D01*
G01X32524750Y29329750D02*
X32757500Y29097000D01*
X33062500D01*
G01X33031500Y29223500D02*
X33033000Y29225000D01*
X33367000D01*
X33427750Y29285750D01*
Y29617750D01*
G01X33062500Y29097000D02*
X33112820D01*
X33113320Y29097500D01*
X33308500D01*
X33425500Y29214500D01*
X33612760D01*
X33628000Y29229740D01*
Y29300000D01*
X33667500Y29339500D01*
G01X33444670Y28936970D02*
X33638940D01*
X33640750Y28938780D01*
G01X33901890Y28676270D02*
X33676560Y28450940D01*
G01X34263030Y27950420D02*
X34138330Y28075120D01*
G01X35054930Y28921900D02*
X35272170Y28704660D01*
G01X35379080Y28427940D02*
X35654560D01*
X35655580Y28428960D01*
G01X35533340Y28725330D02*
X35337670Y28921000D01*
G01X35665690Y28111570D02*
X35783000Y28228880D01*
G01X36583810Y28191480D02*
Y28281780D01*
G01D02*
Y28372080D01*
G01X36493510Y28281780D02*
X36583810D01*
G01D02*
X36674110D01*
G54D11*
X29652000Y30070000D03*
G54D12*
X29841000Y27606500D03*
X31155000D03*
G54D13*
X30003750Y28323870D03*
X29936040Y28234440D03*
X30003750Y28144510D03*
X30346970Y28961400D03*
X30305460Y29191140D03*
Y29379500D03*
X30374730Y29285050D03*
X30179530Y29749750D03*
X30364560D03*
X30271470Y29683630D03*
X30367830Y30423820D03*
X30606380Y30047980D03*
X30790300Y30050570D03*
X30699680Y30109170D03*
X30615570Y30441900D03*
Y30626930D03*
X30681690Y30533840D03*
X30683170Y30777170D03*
X31434860Y29169500D03*
X31502570Y29073660D03*
X31434860Y28980000D03*
X31287500Y29561500D03*
X31288000Y29694000D03*
X31960710Y29551710D03*
X31792710Y29855460D03*
X31666880Y29845540D03*
X32439780Y29092730D03*
X32507450Y29001000D03*
X32440500Y29210500D03*
X32633800Y29353000D03*
X32700000Y29577500D03*
X32632300Y29486000D03*
X32524750Y29329750D03*
X32742000Y30170020D03*
X33196550Y27842270D03*
X32982000Y28519110D03*
X33079000Y28982380D03*
X33031500Y29223500D03*
X33062500Y29097000D03*
X33133000Y29427000D03*
X33133500Y29525000D03*
X33132000Y29327500D03*
X33063880Y30168120D03*
X32975750Y30235830D03*
X32831750Y30237730D03*
X33290100Y27774560D03*
X33381540Y27842270D03*
X33543810Y28849310D03*
X33444670Y28936970D03*
X33550000Y29062290D03*
X33454000Y29130000D03*
X33230500Y29329000D03*
X33323500Y29328000D03*
X33231500Y29428500D03*
X33232000Y29526500D03*
X33324500Y29427500D03*
X33325000Y29525500D03*
X33427750Y29617750D03*
X33588450Y29855950D03*
X33520360Y29761500D03*
X33520740Y29949500D03*
X33588210Y30306340D03*
X33520500Y30213500D03*
Y30398500D03*
X33579930Y30595080D03*
X33676560Y28450940D03*
X33901890Y28676270D03*
X33640750Y28938780D03*
X33645500Y29130000D03*
X33797500Y29186790D03*
X33890810Y29254500D03*
X33707280D03*
X33988500Y29462500D03*
X33765120Y29630790D03*
X33667500Y29339500D03*
X33701050Y29719190D03*
X33919000Y29707500D03*
X34263030Y27950420D03*
X34138330Y28075120D03*
X35054930Y28921900D03*
X35379080Y28427940D03*
X35533340Y28725330D03*
X35272170Y28704660D03*
X35337670Y28921000D03*
X35655580Y28428960D03*
X35665690Y28111570D03*
X35783000Y28228880D03*
X36141950Y28444110D03*
X36358010Y28280940D03*
X36141950Y28624450D03*
X36074240Y28533980D03*
G54D14*
X30398000Y27886500D03*
X30148000D03*
X30848000D03*
X30598000D03*
G54D15*
X30473500Y30984000D03*
X30273500D03*
X30673500D03*
G54D16*
X31285570Y31084360D03*
X31412570D03*
X31539570D03*
X31285570Y30957360D03*
X31412570D03*
X31539570D03*
X31666570Y31084360D03*
Y30957360D03*
X31793570D03*
X34334490Y28130350D03*
X34331390Y29038270D03*
X34514490Y27950350D03*
Y28310350D03*
X34511390Y28858270D03*
Y29218270D03*
X35881550Y28880700D03*
G54D17*
X31793570Y31084360D03*
X35881550Y29134700D03*
G54D18*
X36583810Y28027780D03*
Y28535780D03*
G54D19*
Y28281780D03*
M02*
