M48
METRIC,TZ
T01C.3
T02C.5
T03C.6
T04C.7
T05C.9
T06C.95
T07C1.1
;LEADER: 12 
;HEADER: 
;CODE  : ASCII 
;FILE  : SCHIVATO-1-2.drl for  ... layers TOP and BOTTOM
;DESIGN: SCHIVATO.brd
;T01 Holesize 1. = 0.300000 Tolerance = +0.000000/-0.000000 PLATED MM Quantity = 91
;T02 Holesize 2. = 0.500000 Tolerance = +0.000000/-0.000000 PLATED MM Quantity = 10
;T03 Holesize 3. = 0.600000 Tolerance = +0.000000/-0.000000 PLATED MM Quantity = 3
;T04 Holesize 4. = 0.700000 Tolerance = +0.000000/-0.000000 PLATED MM Quantity = 8
;T05 Holesize 5. = 0.900000 Tolerance = +0.000000/-0.000000 PLATED MM Quantity = 2
;T06 Holesize 6. = 0.950000 Tolerance = +0.000000/-0.000000 PLATED MM Quantity = 3
;T07 Holesize 7. = 1.100000 Tolerance = +0.000000/-0.000000 PLATED MM Quantity = 4
%
G90
T01
X316669Y298455
X312880Y296940
X312875Y295615
X306997Y301092
X307903Y300506
X306064Y300480
X302715Y296836
X303646Y297498
X301795Y297498
X303747Y292850
X303055Y293795
X303055Y291911
X314349Y289800
X315026Y290737
X314349Y291695
X303470Y289614
X300038Y281445
X299360Y282344
X300038Y283239
X306832Y307772
X306817Y305338
X306156Y304419
X306156Y306269
X303678Y304238
X335799Y305951
X335205Y303985
X335205Y302135
X335882Y303063
X327420Y301700
X328318Y302377
X329758Y302358
X330639Y301681
X336766Y284509
X339019Y286763
X319607Y295517
X317927Y298555
X324405Y292105
X357830Y282289
X356657Y281116
X325248Y293298
X330625Y290970
X336675Y293395
X330315Y292235
X334278Y296178
X352722Y287047
X350549Y289219
X341383Y280751
X342630Y279504
X339190Y297075
X337651Y296308
X337010Y297192
X335207Y299495
X335204Y297615
X335885Y298560
X326323Y294860
X327000Y295775
X339885Y294625
X337073Y292545
X338908Y292545
X337975Y291868
X333250Y295255
X333245Y294275
X332320Y295265
X332315Y294285
X331320Y293275
X331335Y295250
X331330Y294270
X333235Y293280
X332305Y293290
X326338Y293530
X335438Y288493
X334540Y291300
X335500Y290623
X336455Y291300
X330790Y289824
X325074Y290010
X324398Y290927
X363580Y282809
X360742Y285340
X361420Y286244
X361420Y284441
X329820Y285191
X331966Y278423
X333815Y278423
X332901Y277746
X353791Y284279
X356556Y284290
X355333Y287253
X353377Y289210
X336408Y289388
X334447Y289370
T02
X316666Y309574
X315396Y309574
X314126Y309574
X312856Y309574
X316666Y310844
X315396Y310844
X314126Y310844
X312856Y310844
X317936Y309574
X317936Y310844
T03
X302735Y309840
X304735Y309840
X306735Y309840
T04
X345145Y283104
X343345Y281304
X345145Y279504
X345114Y292183
X343314Y290383
X345114Y288583
X358815Y288807
X358815Y291347
T05
X296520Y300700
X296520Y298160
T06
X365838Y280278
X365838Y282818
X365838Y285358
T07
X301480Y278865
X303980Y278865
X305980Y278865
X308480Y278865
M30
