G04 ================== begin FILE IDENTIFICATION RECORD ==================*
G04 Layout Name:  SCHIVATO.brd*
G04 Film Name:    SM*
G04 File Format:  Gerber RS274X*
G04 File Origin:  Cadence Allegro 17.2-S079*
G04 Origin Date:  Tue Jan 11 15:33:25 2022*
G04 *
G04 Layer:  VIA CLASS/SOLDERMASK_TOP*
G04 Layer:  PIN/SOLDERMASK_TOP*
G04 Layer:  PACKAGE GEOMETRY/SOLDERMASK_TOP*
G04 Layer:  BOARD GEOMETRY/SOLDERMASK_TOP*
G04 *
G04 Offset:    (0.0000 0.0000)*
G04 Mirror:    No*
G04 Mode:      Positive*
G04 Rotation:  0*
G04 FullContactRelief:  No*
G04 UndefLineWidth:     0.0001*
G04 ================== end FILE IDENTIFICATION RECORD ====================*
%FSLAX25Y25*MOMM*%
%IR0*IPPOS*OFA0.00000B0.00000*MIA0B0*SFA1.00000B1.00000*%
%ADD28R,.5X1.*%
%AMMACRO27*
4,1,40,-.05,-.275,
.05,-.275,
.058682,-.27424,
.067101,-.271985,
.075,-.268301,
.082139,-.263302,
.088302,-.257139,
.093301,-.25,
.096985,-.242101,
.09924,-.233682,
.1,-.225,
.1,.225,
.09924,.233682,
.096985,.242101,
.093301,.25,
.088302,.257139,
.082139,.263302,
.075,.268301,
.067101,.271985,
.058682,.27424,
.05,.275,
-.05,.275,
-.058682,.27424,
-.067101,.271985,
-.075,.268301,
-.082139,.263302,
-.088302,.257139,
-.093301,.25,
-.096985,.242101,
-.09924,.233682,
-.1,.225,
-.1,-.225,
-.09924,-.233682,
-.096985,-.242101,
-.093301,-.25,
-.088302,-.257139,
-.082139,-.263302,
-.075,-.268301,
-.067101,-.271985,
-.058682,-.27424,
-.05,-.275,
0.0*
%
%ADD27MACRO27*%
%AMMACRO26*
4,1,40,.275,-.05,
.275,.05,
.27424,.058682,
.271985,.067101,
.268301,.075,
.263302,.082139,
.257139,.088302,
.25,.093301,
.242101,.096985,
.233682,.09924,
.225,.1,
-.225,.1,
-.233682,.09924,
-.242101,.096985,
-.25,.093301,
-.257139,.088302,
-.263302,.082139,
-.268301,.075,
-.271985,.067101,
-.27424,.058682,
-.275,.05,
-.275,-.05,
-.27424,-.058682,
-.271985,-.067101,
-.268301,-.075,
-.263302,-.082139,
-.257139,-.088302,
-.25,-.093301,
-.242101,-.096985,
-.233682,-.09924,
-.225,-.1,
.225,-.1,
.233682,-.09924,
.242101,-.096985,
.25,-.093301,
.257139,-.088302,
.263302,-.082139,
.268301,-.075,
.271985,-.067101,
.27424,-.058682,
.275,-.05,
0.0*
%
%ADD26MACRO26*%
%ADD15R,.5X1.2*%
%AMMACRO21*
4,1,40,.45,-.2,
.45,.2,
.44924,.208682,
.446985,.217101,
.443301,.225,
.438302,.232139,
.432139,.238302,
.425,.243301,
.417101,.246985,
.408682,.24924,
.4,.25,
-.4,.25,
-.408682,.24924,
-.417101,.246985,
-.425,.243301,
-.432139,.238302,
-.438302,.232139,
-.443301,.225,
-.446985,.217101,
-.44924,.208682,
-.45,.2,
-.45,-.2,
-.44924,-.208682,
-.446985,-.217101,
-.443301,-.225,
-.438302,-.232139,
-.432139,-.238302,
-.425,-.243301,
-.417101,-.246985,
-.408682,-.24924,
-.4,-.25,
.4,-.25,
.408682,-.24924,
.417101,-.246985,
.425,-.243301,
.432139,-.238302,
.438302,-.232139,
.443301,-.225,
.446985,-.217101,
.44924,-.208682,
.45,-.2,
0.0*
%
%ADD21MACRO21*%
%AMMACRO16*
4,1,40,-.2,-.45,
.2,-.45,
.208682,-.44924,
.217101,-.446985,
.225,-.443301,
.232139,-.438302,
.238302,-.432139,
.243301,-.425,
.246985,-.417101,
.24924,-.408682,
.25,-.4,
.25,.4,
.24924,.408682,
.246985,.417101,
.243301,.425,
.238302,.432139,
.232139,.438302,
.225,.443301,
.217101,.446985,
.208682,.44924,
.2,.45,
-.2,.45,
-.208682,.44924,
-.217101,.446985,
-.225,.443301,
-.232139,.438302,
-.238302,.432139,
-.243301,.425,
-.246985,.417101,
-.24924,.408682,
-.25,.4,
-.25,-.4,
-.24924,-.408682,
-.246985,-.417101,
-.243301,-.425,
-.238302,-.432139,
-.232139,-.438302,
-.225,-.443301,
-.217101,-.446985,
-.208682,-.44924,
-.2,-.45,
0.0*
%
%ADD16MACRO16*%
%AMMACRO25*
4,1,40,1.4,-1.35,
1.4,1.35,
1.39924,1.358682,
1.396985,1.367101,
1.393301,1.375,
1.388302,1.382139,
1.382139,1.388302,
1.375,1.393301,
1.367101,1.396985,
1.358682,1.39924,
1.35,1.4,
-1.35,1.4,
-1.358682,1.39924,
-1.367101,1.396985,
-1.375,1.393301,
-1.382139,1.388302,
-1.388302,1.382139,
-1.393301,1.375,
-1.396985,1.367101,
-1.39924,1.358682,
-1.4,1.35,
-1.4,-1.35,
-1.39924,-1.358682,
-1.396985,-1.367101,
-1.393301,-1.375,
-1.388302,-1.382139,
-1.382139,-1.388302,
-1.375,-1.393301,
-1.367101,-1.396985,
-1.358682,-1.39924,
-1.35,-1.4,
1.35,-1.4,
1.358682,-1.39924,
1.367101,-1.396985,
1.375,-1.393301,
1.382139,-1.388302,
1.388302,-1.382139,
1.393301,-1.375,
1.396985,-1.367101,
1.39924,-1.358682,
1.4,-1.35,
0.0*
%
%ADD25MACRO25*%
%AMMACRO18*
4,1,40,.3,-.5,
.3,.5,
.29924,.508682,
.296985,.517101,
.293301,.525,
.288302,.532139,
.282139,.538302,
.275,.543301,
.267101,.546985,
.258682,.54924,
.25,.55,
-.25,.55,
-.258682,.54924,
-.267101,.546985,
-.275,.543301,
-.282139,.538302,
-.288302,.532139,
-.293301,.525,
-.296985,.517101,
-.29924,.508682,
-.3,.5,
-.3,-.5,
-.29924,-.508682,
-.296985,-.517101,
-.293301,-.525,
-.288302,-.532139,
-.282139,-.538302,
-.275,-.543301,
-.267101,-.546985,
-.258682,-.54924,
-.25,-.55,
.25,-.55,
.258682,-.54924,
.267101,-.546985,
.275,-.543301,
.282139,-.538302,
.288302,-.532139,
.293301,-.525,
.296985,-.517101,
.29924,-.508682,
.3,-.5,
0.0*
%
%ADD18MACRO18*%
%ADD33R,1.5X2.2*%
%ADD20R,1.5X1.4*%
%ADD32R,1.4X1.5*%
%AMMACRO29*
4,1,40,-.275,.05,
-.275,-.05,
-.27424,-.058682,
-.271985,-.067101,
-.268301,-.075,
-.263302,-.082139,
-.257139,-.088302,
-.25,-.093301,
-.242101,-.096985,
-.233682,-.09924,
-.225,-.1,
.225,-.1,
.233682,-.09924,
.242101,-.096985,
.25,-.093301,
.257139,-.088302,
.263302,-.082139,
.268301,-.075,
.271985,-.067101,
.27424,-.058682,
.275,-.05,
.275,.05,
.27424,.058682,
.271985,.067101,
.268301,.075,
.263302,.082139,
.257139,.088302,
.25,.093301,
.242101,.096985,
.233682,.09924,
.225,.1,
-.225,.1,
-.233682,.09924,
-.242101,.096985,
-.25,.093301,
-.257139,.088302,
-.263302,.082139,
-.268301,.075,
-.271985,.067101,
-.27424,.058682,
-.275,.05,
0.0*
%
%ADD29MACRO29*%
%AMMACRO23*
4,1,40,.275,-.75,
.275,.75,
.27424,.758682,
.271985,.767101,
.268301,.775,
.263302,.782139,
.257139,.788302,
.25,.793301,
.242101,.796985,
.233682,.79924,
.225,.8,
-.225,.8,
-.233682,.79924,
-.242101,.796985,
-.25,.793301,
-.257139,.788302,
-.263302,.782139,
-.268301,.775,
-.271985,.767101,
-.27424,.758682,
-.275,.75,
-.275,-.75,
-.27424,-.758682,
-.271985,-.767101,
-.268301,-.775,
-.263302,-.782139,
-.257139,-.788302,
-.25,-.793301,
-.242101,-.796985,
-.233682,-.79924,
-.225,-.8,
.225,-.8,
.233682,-.79924,
.242101,-.796985,
.25,-.793301,
.257139,-.788302,
.263302,-.782139,
.268301,-.775,
.271985,-.767101,
.27424,-.758682,
.275,-.75,
0.0*
%
%ADD23MACRO23*%
%AMMACRO24*
4,1,40,.05,.275,
-.05,.275,
-.058682,.27424,
-.067101,.271985,
-.075,.268301,
-.082139,.263302,
-.088302,.257139,
-.093301,.25,
-.096985,.242101,
-.09924,.233682,
-.1,.225,
-.1,-.225,
-.09924,-.233682,
-.096985,-.242101,
-.093301,-.25,
-.088302,-.257139,
-.082139,-.263302,
-.075,-.268301,
-.067101,-.271985,
-.058682,-.27424,
-.05,-.275,
.05,-.275,
.058682,-.27424,
.067101,-.271985,
.075,-.268301,
.082139,-.263302,
.088302,-.257139,
.093301,-.25,
.096985,-.242101,
.09924,-.233682,
.1,-.225,
.1,.225,
.09924,.233682,
.096985,.242101,
.093301,.25,
.088302,.257139,
.082139,.263302,
.075,.268301,
.067101,.271985,
.058682,.27424,
.05,.275,
0.0*
%
%ADD24MACRO24*%
%AMMACRO17*
4,1,40,-.45,.2,
-.45,-.2,
-.44924,-.208682,
-.446985,-.217101,
-.443301,-.225,
-.438302,-.232139,
-.432139,-.238302,
-.425,-.243301,
-.417101,-.246985,
-.408682,-.24924,
-.4,-.25,
.4,-.25,
.408682,-.24924,
.417101,-.246985,
.425,-.243301,
.432139,-.238302,
.438302,-.232139,
.443301,-.225,
.446985,-.217101,
.44924,-.208682,
.45,-.2,
.45,.2,
.44924,.208682,
.446985,.217101,
.443301,.225,
.438302,.232139,
.432139,.238302,
.425,.243301,
.417101,.246985,
.408682,.24924,
.4,.25,
-.4,.25,
-.408682,.24924,
-.417101,.246985,
-.425,.243301,
-.432139,.238302,
-.438302,.232139,
-.443301,.225,
-.446985,.217101,
-.44924,.208682,
-.45,.2,
0.0*
%
%ADD17MACRO17*%
%ADD19C,1.*%
%AMMACRO13*
4,1,40,.2,.45,
-.2,.45,
-.208682,.44924,
-.217101,.446985,
-.225,.443301,
-.232139,.438302,
-.238302,.432139,
-.243301,.425,
-.246985,.417101,
-.24924,.408682,
-.25,.4,
-.25,-.4,
-.24924,-.408682,
-.246985,-.417101,
-.243301,-.425,
-.238302,-.432139,
-.232139,-.438302,
-.225,-.443301,
-.217101,-.446985,
-.208682,-.44924,
-.2,-.45,
.2,-.45,
.208682,-.44924,
.217101,-.446985,
.225,-.443301,
.232139,-.438302,
.238302,-.432139,
.243301,-.425,
.246985,-.417101,
.24924,-.408682,
.25,-.4,
.25,.4,
.24924,.408682,
.246985,.417101,
.243301,.425,
.238302,.432139,
.232139,.438302,
.225,.443301,
.217101,.446985,
.208682,.44924,
.2,.45,
0.0*
%
%ADD13MACRO13*%
%ADD31C,1.1*%
%ADD30R,.5X.6*%
%ADD10C,1.3*%
%ADD12C,2.4*%
%ADD14C,1.6*%
%ADD22R,1.X1.*%
%ADD34R,1.1X1.1*%
%ADD35C,1.45*%
%ADD11R,1.3X1.3*%
%ADD36R,1.45X1.45*%
G75*
%LPD*%
G75*
G36*
G01X32135100Y31230100D02*
Y30707200D01*
X33655000D01*
Y31230100D01*
X32135100D01*
G37*
G54D10*
X29652000Y29816000D03*
G54D11*
Y30070000D03*
G54D20*
X30615500Y28553000D03*
Y28833000D03*
G54D12*
X29841000Y27606500D03*
X31155000D03*
G54D30*
X33989000Y29534500D03*
Y29634500D03*
X33919000D03*
Y29534500D03*
G54D21*
X30699280Y29898810D03*
Y30048810D03*
X32831750Y30020020D03*
Y30170020D03*
X32982000Y28586820D03*
Y28736820D03*
X32975750Y30018120D03*
Y30168120D03*
X33370700Y30442970D03*
Y30592970D03*
G54D22*
X31793570Y31084360D03*
G54D31*
X34334490Y28130350D03*
X34331390Y29038270D03*
X34514490Y27950350D03*
Y28310350D03*
X34511390Y28858270D03*
Y29218270D03*
X35881550Y28880700D03*
G54D13*
X30003750Y28234440D03*
X30153750D03*
X30305460Y28520180D03*
X30155460D03*
X30425590Y29899090D03*
X30575590D03*
X32657490Y29092730D03*
X32507490D03*
X32701500Y29353000D03*
X32700000Y29486000D03*
X32851500Y29353000D03*
X32850000Y29486000D03*
X36291950Y28533980D03*
X36141950D03*
G54D14*
X30398000Y27886500D03*
X30148000D03*
X30848000D03*
X30598000D03*
G54D23*
X33162810Y28196640D03*
Y28736640D03*
X33543810Y28196640D03*
X33416810D03*
X33289810D03*
Y28736640D03*
X33416810D03*
X33543810D03*
G54D32*
X35016410Y28015280D03*
X35296410D03*
G54D24*
X33170980Y29233410D03*
X33130980D03*
X33090980D03*
X33370980D03*
X33330980D03*
X33290980D03*
X33250980D03*
X33210980D03*
G54D33*
X35027670Y29119110D03*
X35337670D03*
G54D15*
X30155740Y28832590D03*
X30345740D03*
X30250740D03*
X30155740Y29067590D03*
X30345740D03*
G54D34*
X35881550Y29134700D03*
G54D25*
X33230980Y29425910D03*
G54D16*
X30155460Y29286010D03*
X30305460D03*
X30473010Y30777420D03*
X30623010D03*
X30465570Y30533990D03*
X30615570D03*
X31136460Y29345120D03*
X31284860Y29073660D03*
X31434860D03*
X31286460Y29345120D03*
X32792600Y29093120D03*
X32942600D03*
X33551050Y29630790D03*
X33370740Y29855950D03*
X33520740D03*
X33370500Y30306340D03*
X33520500D03*
X33701050Y29630790D03*
X36140300Y28280940D03*
X36290300D03*
G54D35*
X36583810Y28027780D03*
Y28535780D03*
G54D17*
X30272660Y29899790D03*
Y29749790D03*
X33171030Y29132380D03*
Y28982380D03*
X33207190Y29946290D03*
Y29796290D03*
X33546410Y27990690D03*
Y27840690D03*
X33290100Y27992270D03*
Y27842270D03*
X33550000Y29130000D03*
Y29280000D03*
X33369910Y30024110D03*
Y30174110D03*
X33797500Y29254500D03*
Y29404500D03*
X36223480Y28028590D03*
Y28178590D03*
G54D26*
X33038480Y29285910D03*
Y29325910D03*
Y29365910D03*
Y29405910D03*
Y29445910D03*
Y29485910D03*
Y29525910D03*
Y29565910D03*
G54D36*
X36583810Y28281780D03*
G54D18*
X30272830Y30055610D03*
Y30315610D03*
X30367830D03*
X30462830Y30055610D03*
Y30315610D03*
G54D27*
X33090980Y29618410D03*
X33130980D03*
X33170980D03*
X33210980D03*
X33250980D03*
X33290980D03*
X33330980D03*
X33370980D03*
G54D19*
X30473500Y30984000D03*
X30273500D03*
X30673500D03*
X31285570Y31084360D03*
X31412570D03*
X31539570D03*
X31285570Y30957360D03*
X31412570D03*
X31539570D03*
X31666570Y31084360D03*
Y30957360D03*
X31793570D03*
G54D28*
X32865800Y29875060D03*
X32975800D03*
G54D29*
X33423480Y29565910D03*
Y29525910D03*
Y29485910D03*
Y29445910D03*
Y29405910D03*
Y29365910D03*
Y29325910D03*
Y29285910D03*
M02*
