G04 ================== begin FILE IDENTIFICATION RECORD ==================*
G04 Layout Name:  SCHIVATO.brd*
G04 Film Name:    TOP*
G04 File Format:  Gerber RS274X*
G04 File Origin:  Cadence Allegro 17.2-S079*
G04 Origin Date:  Tue Jan 11 15:33:25 2022*
G04 *
G04 Layer:  ETCH/TOP*
G04 Layer:  PIN/TOP*
G04 Layer:  VIA CLASS/TOP*
G04 *
G04 Offset:    (0.0000 0.0000)*
G04 Mirror:    No*
G04 Mode:      Positive*
G04 Rotation:  0*
G04 FullContactRelief:  No*
G04 UndefLineWidth:     0.0001*
G04 ================== end FILE IDENTIFICATION RECORD ====================*
%FSLAX25Y25*MOMM*%
%IR0*IPPOS*OFA0.00000B0.00000*MIA0B0*SFA1.00000B1.00000*%
%ADD30R,.5X1.*%
%AMMACRO29*
4,1,40,-.05,-.275,
.05,-.275,
.058682,-.27424,
.067101,-.271985,
.075,-.268301,
.082139,-.263302,
.088302,-.257139,
.093301,-.25,
.096985,-.242101,
.09924,-.233682,
.1,-.225,
.1,.225,
.09924,.233682,
.096985,.242101,
.093301,.25,
.088302,.257139,
.082139,.263302,
.075,.268301,
.067101,.271985,
.058682,.27424,
.05,.275,
-.05,.275,
-.058682,.27424,
-.067101,.271985,
-.075,.268301,
-.082139,.263302,
-.088302,.257139,
-.093301,.25,
-.096985,.242101,
-.09924,.233682,
-.1,.225,
-.1,-.225,
-.09924,-.233682,
-.096985,-.242101,
-.093301,-.25,
-.088302,-.257139,
-.082139,-.263302,
-.075,-.268301,
-.067101,-.271985,
-.058682,-.27424,
-.05,-.275,
0.0*
%
%ADD29MACRO29*%
%AMMACRO28*
4,1,40,.275,-.05,
.275,.05,
.27424,.058682,
.271985,.067101,
.268301,.075,
.263302,.082139,
.257139,.088302,
.25,.093301,
.242101,.096985,
.233682,.09924,
.225,.1,
-.225,.1,
-.233682,.09924,
-.242101,.096985,
-.25,.093301,
-.257139,.088302,
-.263302,.082139,
-.268301,.075,
-.271985,.067101,
-.27424,.058682,
-.275,.05,
-.275,-.05,
-.27424,-.058682,
-.271985,-.067101,
-.268301,-.075,
-.263302,-.082139,
-.257139,-.088302,
-.25,-.093301,
-.242101,-.096985,
-.233682,-.09924,
-.225,-.1,
.225,-.1,
.233682,-.09924,
.242101,-.096985,
.25,-.093301,
.257139,-.088302,
.263302,-.082139,
.268301,-.075,
.271985,-.067101,
.27424,-.058682,
.275,-.05,
0.0*
%
%ADD28MACRO28*%
%ADD16R,.5X1.2*%
%AMMACRO22*
4,1,40,.45,-.2,
.45,.2,
.44924,.208682,
.446985,.217101,
.443301,.225,
.438302,.232139,
.432139,.238302,
.425,.243301,
.417101,.246985,
.408682,.24924,
.4,.25,
-.4,.25,
-.408682,.24924,
-.417101,.246985,
-.425,.243301,
-.432139,.238302,
-.438302,.232139,
-.443301,.225,
-.446985,.217101,
-.44924,.208682,
-.45,.2,
-.45,-.2,
-.44924,-.208682,
-.446985,-.217101,
-.443301,-.225,
-.438302,-.232139,
-.432139,-.238302,
-.425,-.243301,
-.417101,-.246985,
-.408682,-.24924,
-.4,-.25,
.4,-.25,
.408682,-.24924,
.417101,-.246985,
.425,-.243301,
.432139,-.238302,
.438302,-.232139,
.443301,-.225,
.446985,-.217101,
.44924,-.208682,
.45,-.2,
0.0*
%
%ADD22MACRO22*%
%AMMACRO17*
4,1,40,-.2,-.45,
.2,-.45,
.208682,-.44924,
.217101,-.446985,
.225,-.443301,
.232139,-.438302,
.238302,-.432139,
.243301,-.425,
.246985,-.417101,
.24924,-.408682,
.25,-.4,
.25,.4,
.24924,.408682,
.246985,.417101,
.243301,.425,
.238302,.432139,
.232139,.438302,
.225,.443301,
.217101,.446985,
.208682,.44924,
.2,.45,
-.2,.45,
-.208682,.44924,
-.217101,.446985,
-.225,.443301,
-.232139,.438302,
-.238302,.432139,
-.243301,.425,
-.246985,.417101,
-.24924,.408682,
-.25,.4,
-.25,-.4,
-.24924,-.408682,
-.246985,-.417101,
-.243301,-.425,
-.238302,-.432139,
-.232139,-.438302,
-.225,-.443301,
-.217101,-.446985,
-.208682,-.44924,
-.2,-.45,
0.0*
%
%ADD17MACRO17*%
%AMMACRO27*
4,1,40,1.4,-1.35,
1.4,1.35,
1.39924,1.358682,
1.396985,1.367101,
1.393301,1.375,
1.388302,1.382139,
1.382139,1.388302,
1.375,1.393301,
1.367101,1.396985,
1.358682,1.39924,
1.35,1.4,
-1.35,1.4,
-1.358682,1.39924,
-1.367101,1.396985,
-1.375,1.393301,
-1.382139,1.388302,
-1.388302,1.382139,
-1.393301,1.375,
-1.396985,1.367101,
-1.39924,1.358682,
-1.4,1.35,
-1.4,-1.35,
-1.39924,-1.358682,
-1.396985,-1.367101,
-1.393301,-1.375,
-1.388302,-1.382139,
-1.382139,-1.388302,
-1.375,-1.393301,
-1.367101,-1.396985,
-1.358682,-1.39924,
-1.35,-1.4,
1.35,-1.4,
1.358682,-1.39924,
1.367101,-1.396985,
1.375,-1.393301,
1.382139,-1.388302,
1.388302,-1.382139,
1.393301,-1.375,
1.396985,-1.367101,
1.39924,-1.358682,
1.4,-1.35,
0.0*
%
%ADD27MACRO27*%
%ADD14C,.6*%
%ADD33R,.5001X.5001*%
%AMMACRO19*
4,1,40,.3,-.5,
.3,.5,
.29924,.508682,
.296985,.517101,
.293301,.525,
.288302,.532139,
.282139,.538302,
.275,.543301,
.267101,.546985,
.258682,.54924,
.25,.55,
-.25,.55,
-.258682,.54924,
-.267101,.546985,
-.275,.543301,
-.282139,.538302,
-.288302,.532139,
-.293301,.525,
-.296985,.517101,
-.29924,.508682,
-.3,.5,
-.3,-.5,
-.29924,-.508682,
-.296985,-.517101,
-.293301,-.525,
-.288302,-.532139,
-.282139,-.538302,
-.275,-.543301,
-.267101,-.546985,
-.258682,-.54924,
-.25,-.55,
.25,-.55,
.258682,-.54924,
.267101,-.546985,
.275,-.543301,
.282139,-.538302,
.288302,-.532139,
.293301,-.525,
.296985,-.517101,
.29924,-.508682,
.3,-.5,
0.0*
%
%ADD19MACRO19*%
%ADD36R,1.5X2.2*%
%ADD21R,1.5X1.4*%
%ADD35R,1.4X1.5*%
%AMMACRO31*
4,1,40,-.275,.05,
-.275,-.05,
-.27424,-.058682,
-.271985,-.067101,
-.268301,-.075,
-.263302,-.082139,
-.257139,-.088302,
-.25,-.093301,
-.242101,-.096985,
-.233682,-.09924,
-.225,-.1,
.225,-.1,
.233682,-.09924,
.242101,-.096985,
.25,-.093301,
.257139,-.088302,
.263302,-.082139,
.268301,-.075,
.271985,-.067101,
.27424,-.058682,
.275,-.05,
.275,.05,
.27424,.058682,
.271985,.067101,
.268301,.075,
.263302,.082139,
.257139,.088302,
.25,.093301,
.242101,.096985,
.233682,.09924,
.225,.1,
-.225,.1,
-.233682,.09924,
-.242101,.096985,
-.25,.093301,
-.257139,.088302,
-.263302,.082139,
-.268301,.075,
-.271985,.067101,
-.27424,.058682,
-.275,.05,
0.0*
%
%ADD31MACRO31*%
%AMMACRO25*
4,1,40,.275,-.75,
.275,.75,
.27424,.758682,
.271985,.767101,
.268301,.775,
.263302,.782139,
.257139,.788302,
.25,.793301,
.242101,.796985,
.233682,.79924,
.225,.8,
-.225,.8,
-.233682,.79924,
-.242101,.796985,
-.25,.793301,
-.257139,.788302,
-.263302,.782139,
-.268301,.775,
-.271985,.767101,
-.27424,.758682,
-.275,.75,
-.275,-.75,
-.27424,-.758682,
-.271985,-.767101,
-.268301,-.775,
-.263302,-.782139,
-.257139,-.788302,
-.25,-.793301,
-.242101,-.796985,
-.233682,-.79924,
-.225,-.8,
.225,-.8,
.233682,-.79924,
.242101,-.796985,
.25,-.793301,
.257139,-.788302,
.263302,-.782139,
.268301,-.775,
.271985,-.767101,
.27424,-.758682,
.275,-.75,
0.0*
%
%ADD25MACRO25*%
%AMMACRO26*
4,1,40,.05,.275,
-.05,.275,
-.058682,.27424,
-.067101,.271985,
-.075,.268301,
-.082139,.263302,
-.088302,.257139,
-.093301,.25,
-.096985,.242101,
-.09924,.233682,
-.1,.225,
-.1,-.225,
-.09924,-.233682,
-.096985,-.242101,
-.093301,-.25,
-.088302,-.257139,
-.082139,-.263302,
-.075,-.268301,
-.067101,-.271985,
-.058682,-.27424,
-.05,-.275,
.05,-.275,
.058682,-.27424,
.067101,-.271985,
.075,-.268301,
.082139,-.263302,
.088302,-.257139,
.093301,-.25,
.096985,-.242101,
.09924,-.233682,
.1,-.225,
.1,.225,
.09924,.233682,
.096985,.242101,
.093301,.25,
.088302,.257139,
.082139,.263302,
.075,.268301,
.067101,.271985,
.058682,.27424,
.05,.275,
0.0*
%
%ADD26MACRO26*%
%AMMACRO18*
4,1,40,-.45,.2,
-.45,-.2,
-.44924,-.208682,
-.446985,-.217101,
-.443301,-.225,
-.438302,-.232139,
-.432139,-.238302,
-.425,-.243301,
-.417101,-.246985,
-.408682,-.24924,
-.4,-.25,
.4,-.25,
.408682,-.24924,
.417101,-.246985,
.425,-.243301,
.432139,-.238302,
.438302,-.232139,
.443301,-.225,
.446985,-.217101,
.44924,-.208682,
.45,-.2,
.45,.2,
.44924,.208682,
.446985,.217101,
.443301,.225,
.438302,.232139,
.432139,.238302,
.425,.243301,
.417101,.246985,
.408682,.24924,
.4,.25,
-.4,.25,
-.408682,.24924,
-.417101,.246985,
-.425,.243301,
-.432139,.238302,
-.438302,.232139,
-.443301,.225,
-.446985,.217101,
-.44924,.208682,
-.45,.2,
0.0*
%
%ADD18MACRO18*%
%ADD20C,1.*%
%AMMACRO13*
4,1,40,.2,.45,
-.2,.45,
-.208682,.44924,
-.217101,.446985,
-.225,.443301,
-.232139,.438302,
-.238302,.432139,
-.243301,.425,
-.246985,.417101,
-.24924,.408682,
-.25,.4,
-.25,-.4,
-.24924,-.408682,
-.246985,-.417101,
-.243301,-.425,
-.238302,-.432139,
-.232139,-.438302,
-.225,-.443301,
-.217101,-.446985,
-.208682,-.44924,
-.2,-.45,
.2,-.45,
.208682,-.44924,
.217101,-.446985,
.225,-.443301,
.232139,-.438302,
.238302,-.432139,
.243301,-.425,
.246985,-.417101,
.24924,-.408682,
.25,-.4,
.25,.4,
.24924,.408682,
.246985,.417101,
.243301,.425,
.238302,.432139,
.232139,.438302,
.225,.443301,
.217101,.446985,
.208682,.44924,
.2,.45,
0.0*
%
%ADD13MACRO13*%
%ADD34R,.5X.6*%
%ADD23C,1.1*%
%ADD10C,1.3*%
%ADD12C,2.4*%
%ADD15C,1.6*%
%ADD24R,1.1X1.1*%
%ADD37C,1.45*%
%ADD11R,1.3X1.3*%
%ADD38R,1.45X1.45*%
%ADD32R,.8999X.5001*%
%ADD39C,.18*%
%ADD40C,.153*%
G75*
%LPD*%
G75*
G36*
G01X32234930Y30753060D02*
X32184930D01*
Y31197060D01*
X32454930D01*
Y30933060D01*
X32654930D01*
Y31197060D01*
X32924930D01*
Y30933060D01*
X33124930D01*
Y31197060D01*
X33624930D01*
Y30707060D01*
X33534930D01*
Y31147060D01*
X33394930D01*
Y30707060D01*
X33344930D01*
Y31147060D01*
X33174930D01*
Y30883060D01*
X32874930D01*
Y31147060D01*
X32704930D01*
Y30883060D01*
X32404930D01*
Y31147060D01*
X32234930D01*
Y30753060D01*
G37*
G54D10*
X29652000Y29816000D03*
G54D11*
Y30070000D03*
G54D20*
X30473500Y30984000D03*
X30273500D03*
X30673500D03*
G54D12*
X29841000Y27606500D03*
X31155000D03*
G54D21*
X30615500Y28553000D03*
Y28833000D03*
G54D30*
X32865800Y29875060D03*
X32975800D03*
G54D40*
G01X30003750Y28234440D02*
Y28144510D01*
G01Y28323870D02*
Y28234440D01*
G01D02*
X29936040D01*
G01X30155460Y29286010D02*
Y29486850D01*
X29652000Y29990310D01*
Y30070000D01*
G01D02*
Y30145370D01*
X29652500Y30145870D01*
Y30575500D01*
X30156500Y31079500D01*
X30578000D01*
X30673500Y30984000D01*
G01X30148000Y27886500D02*
Y27981700D01*
X30153750Y27987450D01*
Y28234440D01*
G01X30155460Y28520180D02*
Y28449980D01*
X30153750Y28448270D01*
Y28234440D01*
G01X30155740Y28832590D02*
Y28753530D01*
X30155460Y28753250D01*
Y28520180D01*
G01X30615500Y28833000D02*
X30488840D01*
X30488430Y28832590D01*
X30345740D01*
G01X30615500Y28553000D02*
X30382350D01*
X30349530Y28520180D01*
X30305460D01*
G01X30345740Y29067590D02*
Y28962630D01*
X30346970Y28961400D01*
G01X30305460Y29286010D02*
Y29191140D01*
G01X30155740Y29067590D02*
Y29221670D01*
X30155460Y29221950D01*
Y29286010D01*
G01X30305460Y29379500D02*
Y29286010D01*
G01D02*
X30373770D01*
X30374730Y29285050D01*
G01X30425590Y29899090D02*
X30381520D01*
X30380820Y29899790D01*
X30292650D01*
G01X32982000Y28736820D02*
X31455620D01*
X30292650Y29899790D01*
G01X30272660D02*
X30292650D01*
G01X30272830Y30055610D02*
Y29950170D01*
X30272660Y29950000D01*
Y29899790D01*
G01Y29749790D02*
X30179570D01*
X30179530Y29749750D01*
G01X30271470Y29683630D02*
X30272660Y29684820D01*
Y29749790D01*
G01D02*
X30364520D01*
X30364560Y29749750D01*
G01X31793570Y31084360D02*
Y31164570D01*
X31767120Y31191020D01*
X31237940D01*
X31172800Y31125880D01*
Y30832340D01*
X30528300Y30187840D01*
X30380050D01*
X30272830Y30080620D01*
Y30055610D01*
G01X30367830Y30315610D02*
Y30423820D01*
G01X30272830Y30315610D02*
Y30663330D01*
X30273500Y30664000D01*
G01D02*
Y30984000D01*
G01X30465570Y30533990D02*
X30420200D01*
X30420190Y30534000D01*
X30403500D01*
X30273500Y30664000D01*
G01X31135720Y29730170D02*
X30967080Y29898810D01*
X30699280D01*
G01X30575590Y29899090D02*
X30628800D01*
X30629080Y29898810D01*
X30699280D01*
G01X30698890Y30047980D02*
X30606380D01*
G01X30699680Y30109170D02*
X30699280Y30108770D01*
Y30048810D01*
G01D02*
X30788540D01*
X30790300Y30050570D01*
G01X30462830Y30315610D02*
Y30389680D01*
X30465570Y30392420D01*
Y30533990D01*
G01X30615570D02*
Y30626930D01*
G01Y30441900D02*
Y30533990D01*
G01X30623010Y30777420D02*
X30682920D01*
X30683170Y30777170D01*
G01X30615570Y30533990D02*
X30681540D01*
X30681690Y30533840D01*
G01X30473500Y30984000D02*
Y30913640D01*
X30473010Y30913150D01*
Y30777420D01*
G01X31136460Y29345120D02*
Y29415320D01*
X31135720Y29416060D01*
Y29730170D01*
G01X32259500Y29630700D02*
X31235190D01*
X31135720Y29730170D01*
G01X33250980Y29233410D02*
Y28924810D01*
X33170170Y28844000D01*
X31494530D01*
X31284860Y29053670D01*
Y29073660D01*
G01X31434860D02*
Y28980000D01*
G01Y29169500D02*
Y29073660D01*
G01D02*
X31502570D01*
G01X31284860D02*
Y29137720D01*
X31286460Y29139320D01*
Y29345120D01*
G01D02*
Y29560460D01*
X31287500Y29561500D01*
G01X33090980Y29618410D02*
Y29664970D01*
X33090560Y29665390D01*
Y29667520D01*
X33012560Y29745520D01*
X31619490D01*
X31539570Y29825440D01*
Y30957360D01*
G01X33038480Y29565910D02*
X33020980D01*
X32998970Y29587920D01*
Y29605420D01*
X32934380Y29670010D01*
X31525990D01*
X31412570Y29783430D01*
Y30957360D01*
G01X31285570D02*
Y30883300D01*
X31288000Y30880870D01*
Y29694000D01*
G01X33038480Y29405910D02*
X32956420D01*
X32915000Y29364490D01*
Y29278450D01*
X32899700Y29263150D01*
X32249270D01*
X31960710Y29551710D01*
G01X31793570Y30957360D02*
Y30883300D01*
X31792710Y30882440D01*
Y29855460D01*
G01X31666570Y30957360D02*
Y29845850D01*
X31666880Y29845540D01*
G01X32524750Y29329750D02*
X32259500Y29595000D01*
Y29630700D01*
G01X32850000Y29486000D02*
Y29596500D01*
X32815800Y29630700D01*
X32259500D01*
G01X32439780Y29092730D02*
X32507490D01*
G01D02*
X32507450Y29092690D01*
Y29001000D01*
G01X32657490Y29092730D02*
X32701560D01*
X32701950Y29093120D01*
X32792600D01*
G01D02*
X32843490D01*
X32911140Y29160770D01*
X32912460D01*
X32915190Y29163500D01*
X32971500D01*
X33031500Y29223500D01*
G01X33038480Y29365910D02*
X33009000D01*
X32981000Y29337910D01*
Y29250490D01*
X32941010Y29210500D01*
X32440500D01*
G01X32701500Y29353000D02*
X32633800D01*
G01X32700000Y29577500D02*
Y29486000D01*
G01D02*
X32632300D01*
G01X32831750Y30170020D02*
X32742000D01*
G01X33290100Y27842270D02*
X33196550D01*
G01X33162810Y28736640D02*
Y28789140D01*
X33311540Y28937870D01*
X33443770D01*
X33444670Y28936970D01*
G01X32982000Y28736820D02*
X33052200D01*
X33052380Y28736640D01*
X33162810D01*
G01D02*
Y28630140D01*
X33543810Y28249140D01*
Y28196640D01*
G01X32982000Y28586820D02*
Y28519110D01*
G01X33090980Y29233410D02*
Y29286480D01*
X33132000Y29327500D01*
G01X33079000Y28982380D02*
X33171030D01*
G01D02*
X33171470Y28981940D01*
G01X33130980Y29233410D02*
Y29201740D01*
X33106240Y29177000D01*
X33061990D01*
X32978110Y29093120D01*
X32942600D01*
G01X33170980Y29233410D02*
Y29176500D01*
X33171030Y29176450D01*
Y29132380D01*
G01D02*
X33097880D01*
X33062500Y29097000D01*
G01X33130980Y29618410D02*
X33133500Y29615890D01*
Y29525000D01*
G01X33038480Y29485910D02*
X32946470D01*
X32946400Y29485840D01*
X32902330D01*
G01D02*
X32903170Y29486680D01*
G01X32902330Y29485840D02*
X32902170Y29486000D01*
X32850000D01*
G01X33170980Y29618410D02*
Y29664970D01*
X33053230Y29782720D01*
X32933150D01*
X32865800Y29850070D01*
Y29875060D01*
G01X33038480Y29445910D02*
X32924410D01*
X32851500Y29373000D01*
Y29353000D01*
G01X32975750Y30018120D02*
Y29974050D01*
X32975800Y29974000D01*
Y29875060D01*
G01X33210980Y29618410D02*
Y29685240D01*
X33021160Y29875060D01*
X32975800D01*
G01X32831750Y30020020D02*
X32865800Y29985970D01*
Y29875060D01*
G01X33063880Y30168120D02*
X32975750D01*
G01X32831750Y30237730D02*
Y30170020D01*
G01X32975750Y30168120D02*
Y30235830D01*
G01X33543810Y28196640D02*
Y28037360D01*
X33546410Y28034760D01*
Y27990690D01*
G01X33381540Y27842270D02*
X33290100D01*
G01D02*
Y27774560D01*
G01X33416810Y28196640D02*
Y27950300D01*
X33526420Y27840690D01*
X33546410D01*
G01D02*
X34044830D01*
X34334490Y28130350D01*
G01X33289810Y28196640D02*
Y28036630D01*
X33290100Y28036340D01*
Y27992270D01*
G01X33289810Y28736640D02*
Y28637580D01*
X33476450Y28450940D01*
X33676560D01*
G01X33543810Y28736640D02*
Y28849310D01*
G01X33416810Y28736640D02*
Y28630180D01*
X33438560Y28608430D01*
X33605020D01*
X34138330Y28075120D01*
G01X33550000Y29130000D02*
X33454000D01*
G01X33550000Y29062290D02*
Y29130000D01*
G01X33210980Y29233410D02*
Y29309480D01*
X33230500Y29329000D01*
G01X33550000Y29130000D02*
X33645500D01*
G01X33290980Y29233410D02*
Y29182590D01*
X33934010Y28539560D01*
X35361520D01*
X35873550Y28027530D01*
X35874610Y28028590D01*
X36223480D01*
G01X33290980Y29618410D02*
Y29559520D01*
X33325000Y29525500D01*
G01X33423480Y29445910D02*
X33396410D01*
X33378000Y29427500D01*
X33324500D01*
G01X33423480Y29565910D02*
X33506160D01*
X33551050Y29610800D01*
Y29630790D01*
G01X33423480Y29405910D02*
X33470040D01*
X33471450Y29404500D01*
X33797500D01*
G01X33551050Y29630790D02*
X33440790D01*
X33427750Y29617750D01*
G01X33551050Y29630790D02*
Y29694850D01*
X33682200Y29826000D01*
X34053000D01*
X34117500Y29761500D01*
Y29450500D01*
X34072000Y29405000D01*
X33862060D01*
X33861560Y29404500D01*
X33797500D01*
G01X33550000Y29280000D02*
Y29330910D01*
X33515000Y29365910D01*
G01D02*
X33641090D01*
X33667500Y29339500D01*
G01X33515000Y29365910D02*
X33423480D01*
G01Y29525910D02*
X33814500D01*
X33843500Y29554910D01*
Y29751200D01*
X33858800Y29766500D01*
X33965260D01*
X33989000Y29742760D01*
Y29634500D01*
G01X33426480Y29528910D02*
X33423480Y29525910D01*
G01Y29485910D02*
X33825080D01*
X33873670Y29534500D01*
X33919000D01*
G01X33426480Y29488910D02*
X33423480Y29485910D01*
G01X33520740Y29855950D02*
Y29761880D01*
X33520360Y29761500D01*
G01X33520740Y29949500D02*
Y29855950D01*
G01D02*
X33588450D01*
G01X33369910Y30024110D02*
Y29977400D01*
X33370740Y29976570D01*
Y29855950D01*
G01X33520500Y30306340D02*
Y30213500D01*
G01X33588210Y30306340D02*
X33520500D01*
G01D02*
Y30398500D01*
G01X33579930Y30682060D02*
Y30595080D01*
G01X33369930Y30682060D02*
X33370700Y30681290D01*
G01X35881550Y28880700D02*
X35814960Y28814110D01*
X34852070D01*
X34715140Y28677180D01*
X33902800D01*
X33901890Y28676270D01*
G01X33640750Y28938780D02*
X34231900D01*
X34331390Y29038270D01*
G01X33797500Y29186790D02*
Y29254500D01*
G01X33989000Y29534500D02*
Y29463000D01*
X33988500Y29462500D01*
G01X33919000Y29634500D02*
Y29707500D01*
G01X33765120Y29630790D02*
X33701050D01*
G01X33707280Y29254500D02*
X33797500D01*
G01D02*
X33890810D01*
G01X33701050Y29630790D02*
Y29719190D01*
G01X34514490Y27950350D02*
X34263100D01*
X34263030Y27950420D01*
G01X34334490Y28130350D02*
X34514490Y28310350D01*
G01X34331390Y29038270D02*
X34511390Y29218270D01*
G01X35337670Y29119110D02*
Y29154100D01*
X35180770Y29311000D01*
X34604120D01*
X34511390Y29218270D01*
G01Y28858270D02*
X35605120D01*
X35881550Y29134700D01*
G01X35016410Y28015280D02*
Y28110640D01*
X35017000Y28111230D01*
Y28133000D01*
X35311940Y28427940D01*
X35379080D01*
G01X35027670Y29119110D02*
Y28949160D01*
X35054930Y28921900D01*
G01X35296410Y28015280D02*
X35569400D01*
X35665690Y28111570D01*
G01X36223480Y28178590D02*
Y28347950D01*
X36206360Y28365070D01*
X35611760D01*
X35272170Y28704660D01*
G01X35533340Y28725330D02*
X35578330Y28680340D01*
G01X35337670Y28921000D02*
Y29119110D01*
G01X35578330Y28680340D02*
X35655600Y28603070D01*
Y28484180D01*
X35655580Y28484160D01*
Y28428960D01*
G01X36140300Y28280940D02*
X35835060D01*
X35783000Y28228880D01*
G01X35578330Y28680340D02*
X36165580D01*
X36291950Y28553970D01*
Y28533980D01*
G01X36583810Y28027780D02*
X36288350D01*
X36287540Y28028590D01*
X36223480D01*
G01X36141950Y28533980D02*
Y28444110D01*
G01X36290300Y28280940D02*
X36358010D01*
G01X36583810Y28535780D02*
X36492250D01*
X36490450Y28533980D01*
X36291950D01*
G01X36141950Y28624450D02*
Y28533980D01*
G01D02*
X36074240D01*
G54D13*
X30003750Y28234440D03*
X30153750D03*
X30305460Y28520180D03*
X30155460D03*
X30425590Y29899090D03*
X30575590D03*
X32657490Y29092730D03*
X32507490D03*
X32701500Y29353000D03*
X32700000Y29486000D03*
X32851500Y29353000D03*
X32850000Y29486000D03*
X36291950Y28533980D03*
X36141950D03*
G54D31*
X33423480Y29565910D03*
Y29525910D03*
Y29485910D03*
Y29445910D03*
Y29405910D03*
Y29365910D03*
Y29325910D03*
Y29285910D03*
G54D22*
X30699280Y29898810D03*
Y30048810D03*
X32831750Y30020020D03*
Y30170020D03*
X32982000Y28586820D03*
Y28736820D03*
X32975750Y30018120D03*
Y30168120D03*
X33370700Y30442970D03*
Y30592970D03*
G54D32*
X33579930Y30682060D03*
G54D23*
X31285570Y31084360D03*
X31412570D03*
X31539570D03*
X31285570Y30957360D03*
X31412570D03*
X31539570D03*
X31666570Y31084360D03*
Y30957360D03*
X31793570D03*
X34334490Y28130350D03*
X34331390Y29038270D03*
X34514490Y27950350D03*
Y28310350D03*
X34511390Y28858270D03*
Y29218270D03*
X35881550Y28880700D03*
G54D14*
X30003750Y28323870D03*
X29936040Y28234440D03*
X30003750Y28144510D03*
X30346970Y28961400D03*
X30305460Y29191140D03*
Y29379500D03*
X30374730Y29285050D03*
X30179530Y29749750D03*
X30364560D03*
X30271470Y29683630D03*
X30367830Y30423820D03*
X30606380Y30047980D03*
X30790300Y30050570D03*
X30699680Y30109170D03*
X30615570Y30441900D03*
Y30626930D03*
X30681690Y30533840D03*
X30683170Y30777170D03*
X31434860Y29169500D03*
X31502570Y29073660D03*
X31434860Y28980000D03*
X31287500Y29561500D03*
X31288000Y29694000D03*
X31960710Y29551710D03*
X31792710Y29855460D03*
X31666880Y29845540D03*
X32439780Y29092730D03*
X32507450Y29001000D03*
X32440500Y29210500D03*
X32633800Y29353000D03*
X32700000Y29577500D03*
X32632300Y29486000D03*
X32524750Y29329750D03*
X32742000Y30170020D03*
X33196550Y27842270D03*
X32982000Y28519110D03*
X33079000Y28982380D03*
X33031500Y29223500D03*
X33062500Y29097000D03*
X33133000Y29427000D03*
X33133500Y29525000D03*
X33132000Y29327500D03*
X33063880Y30168120D03*
X32975750Y30235830D03*
X32831750Y30237730D03*
X33290100Y27774560D03*
X33381540Y27842270D03*
X33543810Y28849310D03*
X33444670Y28936970D03*
X33550000Y29062290D03*
X33454000Y29130000D03*
X33230500Y29329000D03*
X33323500Y29328000D03*
X33231500Y29428500D03*
X33232000Y29526500D03*
X33324500Y29427500D03*
X33325000Y29525500D03*
X33427750Y29617750D03*
X33588450Y29855950D03*
X33520360Y29761500D03*
X33520740Y29949500D03*
X33588210Y30306340D03*
X33520500Y30213500D03*
Y30398500D03*
X33579930Y30595080D03*
X33676560Y28450940D03*
X33901890Y28676270D03*
X33640750Y28938780D03*
X33645500Y29130000D03*
X33797500Y29186790D03*
X33890810Y29254500D03*
X33707280D03*
X33988500Y29462500D03*
X33765120Y29630790D03*
X33667500Y29339500D03*
X33701050Y29719190D03*
X33919000Y29707500D03*
X34263030Y27950420D03*
X34138330Y28075120D03*
X35054930Y28921900D03*
X35379080Y28427940D03*
X35533340Y28725330D03*
X35272170Y28704660D03*
X35337670Y28921000D03*
X35655580Y28428960D03*
X35665690Y28111570D03*
X35783000Y28228880D03*
X36141950Y28444110D03*
X36358010Y28280940D03*
X36141950Y28624450D03*
X36074240Y28533980D03*
G54D24*
X31793570Y31084360D03*
X35881550Y29134700D03*
G54D15*
X30398000Y27886500D03*
X30148000D03*
X30848000D03*
X30598000D03*
G54D33*
X33369930Y30682060D03*
G54D34*
X33989000Y29534500D03*
Y29634500D03*
X33919000D03*
Y29534500D03*
G54D25*
X33162810Y28196640D03*
Y28736640D03*
X33543810Y28196640D03*
X33416810D03*
X33289810D03*
Y28736640D03*
X33416810D03*
X33543810D03*
G54D16*
X30155740Y28832590D03*
X30345740D03*
X30250740D03*
X30155740Y29067590D03*
X30345740D03*
G54D26*
X33170980Y29233410D03*
X33130980D03*
X33090980D03*
X33370980D03*
X33330980D03*
X33290980D03*
X33250980D03*
X33210980D03*
G54D35*
X35016410Y28015280D03*
X35296410D03*
G54D17*
X30155460Y29286010D03*
X30305460D03*
X30473010Y30777420D03*
X30623010D03*
X30465570Y30533990D03*
X30615570D03*
X31136460Y29345120D03*
X31284860Y29073660D03*
X31434860D03*
X31286460Y29345120D03*
X32792600Y29093120D03*
X32942600D03*
X33551050Y29630790D03*
X33370740Y29855950D03*
X33520740D03*
X33370500Y30306340D03*
X33520500D03*
X33701050Y29630790D03*
X36140300Y28280940D03*
X36290300D03*
G54D18*
X30272660Y29899790D03*
Y29749790D03*
X33171030Y29132380D03*
Y28982380D03*
X33207190Y29946290D03*
Y29796290D03*
X33546410Y27990690D03*
Y27840690D03*
X33290100Y27992270D03*
Y27842270D03*
X33550000Y29130000D03*
Y29280000D03*
X33369910Y30024110D03*
Y30174110D03*
X33797500Y29254500D03*
Y29404500D03*
X36223480Y28028590D03*
Y28178590D03*
G54D36*
X35027670Y29119110D03*
X35337670D03*
G54D27*
X33230980Y29425910D03*
G54D37*
X36583810Y28027780D03*
Y28535780D03*
G54D19*
X30272830Y30055610D03*
Y30315610D03*
X30367830D03*
X30462830Y30055610D03*
Y30315610D03*
G54D28*
X33038480Y29285910D03*
Y29325910D03*
Y29365910D03*
Y29405910D03*
Y29445910D03*
Y29485910D03*
Y29525910D03*
Y29565910D03*
G54D38*
X36583810Y28281780D03*
G54D29*
X33090980Y29618410D03*
X33130980D03*
X33170980D03*
X33210980D03*
X33250980D03*
X33290980D03*
X33330980D03*
X33370980D03*
G54D39*
G01X33330980D02*
Y29692490D01*
X33227180Y29796290D01*
X33207190D01*
G01X33370980Y29618410D02*
Y29789010D01*
X33370740Y29789250D01*
Y29855950D01*
G01X33207190Y29946290D02*
Y29993000D01*
X33239040Y30024850D01*
X33257400D01*
X33258140Y30024110D01*
X33369910D01*
G01X33370700Y30442970D02*
Y30396260D01*
X33370500Y30396060D01*
Y30306340D01*
G01D02*
Y30239640D01*
X33369910Y30239050D01*
Y30174110D01*
G01X33370700Y30592970D02*
Y30637040D01*
X33369930Y30637810D01*
Y30682060D01*
M02*
